{"title":"Justin and the Knights of Valour 2013 BRRip 480p x264 - VYTO [P2","uid":9394368,"size":337407558,"categoryP":"video","categoryS":"movies","magnet":"?xt=urn:btih:83cf12737e485a0ad8b25bdd9e7a9b51ef087493&amp;dn=Justin+and+the+Knights+of+Valour+2013+BRRip+480p+x264+-+VYTO+%5BP2&amp;tr=udp%3A%2F%2Ftracker.openbittorrent.com%3A80&amp;tr=udp%3A%2F%2Fopen.demonii.com%3A1337&amp;tr=udp%3A%2F%2Ftracker.coppersurfer.tk%3A6969&amp;tr=udp%3A%2F%2Fexodus.desync.com%3A6969","seeders":1,"leechers":0,"uploader":"ValidusVyto","files":5,"time":1387952403,"description":"Justin.and.the.Knights.of.Valour.2013.BRRip.480p.x264.-.VYTO\n\nInfo:\nGeneral\nComplete name                            : Justin.and.the.Knights.of.Valour.2013.BRRip.480p.x264.-.VYTO.[P2PDL]/Justin and the Knights of Valour 2013 BRRip 480p x264 - VYTO.mp4\nFormat                                   : MPEG-4\nFormat profile                           : Base Media\nCodec ID                                 : isom\nFile size                                : 316 MiB\nDuration                                 : 1h 36mn\nOverall bit rate mode                    : Variable\nOverall bit rate                         : 460 Kbps\nEncoded date                             : UTC 2013-12-22 06:47:24\nTagged date                              : UTC 2013-12-22 06:47:24\n\nVideo\nID                                       : 1\nFormat                                   : AVC\nFormat/Info                              : Advanced Video Codec\nFormat profile                           : High &lt;a class=&quot;__cf_email__&quot; href=&quot;/cdn-cgi/l/email-protection&quot; data-cfemail=&quot;231213636f170d12&quot;&gt;[email&amp;#160;protected]&lt;/a&gt;&lt;script cf-hash='f9e31' type=&quot;text/javascript&quot;&gt;\n/* &lt;![CDATA[ */!function(){try{var t=&quot;currentScript&quot;in document?document.currentScript:function(){for(var t=document.getElementsByTagName(&quot;script&quot;),e=t.length;e--;)if(t[e].getAttribute(&quot;cf-hash&quot;))return t[e]}();if(t&amp;&amp;t.previousSibling){var e,r,n,i,c=t.previousSibling,a=c.getAttribute(&quot;data-cfemail&quot;);if(a){for(e=&quot;&quot;,r=parseInt(a.substr(0,2),16),n=2;a.length-n;n+=2)i=parseInt(a.substr(n,2),16)^r,e+=String.fromCharCode(i);e=document.createTextNode(e),c.parentNode.replaceChild(e,c)}}}catch(u){}}();/* ]]&gt; */&lt;/script&gt;\nFormat settings, CABAC                   : Yes\nFormat settings, ReFrames                : 4 frames\nCodec ID                                 : avc1\nCodec ID/Info                            : Advanced Video Coding\nDuration                                 : 1h 36mn\nBit rate                                 : 417 Kbps\nMaximum bit rate                         : 1 897 Kbps\nWidth                                    : 720 pixels\nHeight                                   : 304 pixels\nDisplay aspect ratio                     : 2.35:1\nFrame rate mode                          : Constant\nFrame rate                               : 23.976 fps\nColor space                              : YUV\nChroma subsampling                       : 4:2:0\nBit depth                                : 10 bits\nScan type                                : Progressive\nBits/(Pixel*Frame)                       : 0.079\nStream size                              : 287 MiB (91%)\nWriting library                          : x264 core 140 r2377 1ca7bb9\nEncoding settings                        : cabac=1 / ref=3 / deblock=1:-3:-1 / analyse=0x3:0x113 / me=hex / subme=7 / psy=1 / psy_rd=1.00:0.20 / mixed_ref=1 / me_range=16 / chroma_me=1 / trellis=1 / 8x8dct=1 / cqm=0 / deadzone=21,11 / fast_pskip=1 / chroma_qp_offset=-5 / threads=6 / lookahead_threads=1 / sliced_threads=0 / nr=0 / decimate=1 / interlaced=0 / bluray_compat=0 / constrained_intra=0 / bframes=3 / b_pyramid=2 / b_adapt=1 / b_bias=0 / direct=1 / weightb=1 / open_gop=0 / weightp=2 / keyint=240 / keyint_min=23 / scenecut=40 / intra_refresh=0 / rc_lookahead=40 / rc=2pass / mbtree=1 / bitrate=417 / ratetol=1.0 / qcomp=0.60 / qpmin=0 / qpmax=81 / qpstep=4 / cplxblur=20.0 / qblur=0.5 / vbv_maxrate=50000 / vbv_bufsize=50000 / nal_hrd=none / filler=0 / ip_ratio=1.40 / aq=1:1.00\nEncoded date                             : UTC 2013-12-22 06:47:24\nTagged date                              : UTC 2013-12-22 06:48:10\n\nAudio\nID                                       : 2\nFormat                                   : AAC\nFormat/Info                              : Advanced Audio Codec\nFormat profile                           : HE-AAC / LC\nCodec ID                                 : 40\nDuration                                 : 1h 36mn\nBit rate mode                            : Variable\nBit rate                                 : 39.9 Kbps\nMaximum bit rate                         : 58.6 Kbps\nChannel(s)                               : 2 channels\nChannel positions                        : Front: L R\nSampling rate                            : 48.0 KHz / 24.0 KHz\nCompression mode                         : Lossy\nStream size                              : 27.5 MiB (9%)\nLanguage                                 : English\nEncoded date                             : UTC 2013-12-22 06:48:08\nTagged date                              : UTC 2013-12-22 06:48:10\n\n\n\n\nScreenshots: &lt;a href=&quot;\nhttp://beeimg.com/images/r70268232071.jpg&quot; rel=&quot;nofollow&quot; target=&quot;_NEW&quot;&gt;\nhttp://beeimg.com/images/r70268232071.jpg&lt;/a&gt; &lt;a href=&quot;\nhttp://beeimg.com/images/p48949337631.jpg&quot; rel=&quot;nofollow&quot; target=&quot;_NEW&quot;&gt;\nhttp://beeimg.com/images/p48949337631.jpg&lt;/a&gt;","torrent":{"xt":"urn:btih:83cf12737e485a0ad8b25bdd9e7a9b51ef087493","amp;dn":"Justin+and+the+Knights+of+Valour+2013+BRRip+480p+x264+-+VYTO+%5BP2","amp;tr":["udp%3A%2F%2Ftracker.openbittorrent.com%3A80","udp%3A%2F%2Fopen.demonii.com%3A1337","udp%3A%2F%2Ftracker.coppersurfer.tk%3A6969","udp%3A%2F%2Fexodus.desync.com%3A6969"],"infoHash":"83cf12737e485a0ad8b25bdd9e7a9b51ef087493","infoHashBuffer":{"type":"Buffer","data":[131,207,18,115,126,72,90,10,216,178,91,221,158,122,155,81,239,8,116,147]},"announce":[],"urlList":[]}}